<svg width="104" height="62" viewBox="0 0 104 62" fill="none" xmlns="http://www.w3.org/2000/svg">
<g filter="url(#filter0_df)">
<rect x="6.48743" y="8.49002" width="96.3151" height="40.3042" rx="13.3359" fill="url(#paint0_linear)"/>
</g>
<g filter="url(#filter1_d)">
<path d="M69.973 25.5729L66.9902 32.4187H65.7384L62.7458 25.5729H64.1247L66.4034 30.8539L68.7016 25.5729H69.973ZM70.6258 27.1963H71.8483V32.4187H70.6258V27.1963ZM71.2419 26.3357C71.0202 26.3357 70.8344 26.2672 70.6845 26.1303C70.5345 25.9869 70.4595 25.8109 70.4595 25.6022C70.4595 25.3936 70.5345 25.2208 70.6845 25.0839C70.8344 24.9405 71.0202 24.8688 71.2419 24.8688C71.4636 24.8688 71.6494 24.9372 71.7994 25.0741C71.9493 25.2045 72.0243 25.3708 72.0243 25.5729C72.0243 25.788 71.9493 25.9706 71.7994 26.1206C71.6559 26.264 71.4701 26.3357 71.2419 26.3357ZM76.3475 27.1376C76.8561 27.1376 77.3092 27.2485 77.7069 27.4701C78.1111 27.6918 78.4273 28.0048 78.6555 28.409C78.8837 28.8132 78.9978 29.2794 78.9978 29.8075C78.9978 30.3356 78.8837 30.805 78.6555 31.2158C78.4273 31.62 78.1111 31.9329 77.7069 32.1546C77.3092 32.3763 76.8561 32.4871 76.3475 32.4871C75.9889 32.4871 75.6597 32.4252 75.3598 32.3013C75.0664 32.1774 74.8186 31.9916 74.6165 31.7439V32.4187H73.4527V25.1621H74.6752V27.832C74.8838 27.6038 75.1283 27.431 75.4087 27.3137C75.6955 27.1963 76.0085 27.1376 76.3475 27.1376ZM76.2106 31.4407C76.6605 31.4407 77.0288 31.2907 77.3157 30.9908C77.6091 30.6909 77.7558 30.2965 77.7558 29.8075C77.7558 29.3185 77.6091 28.9241 77.3157 28.6242C77.0288 28.3242 76.6605 28.1743 76.2106 28.1743C75.9172 28.1743 75.6532 28.2427 75.4185 28.3797C75.1837 28.5101 74.9979 28.6991 74.861 28.9469C74.7241 29.1946 74.6556 29.4815 74.6556 29.8075C74.6556 30.1335 74.7241 30.4204 74.861 30.6681C74.9979 30.9159 75.1837 31.1082 75.4185 31.2451C75.6532 31.3755 75.9172 31.4407 76.2106 31.4407ZM85.0666 29.8368C85.0666 29.9216 85.0601 30.0422 85.047 30.1987H80.9493C81.021 30.5833 81.2069 30.8898 81.5068 31.118C81.8132 31.3396 82.1913 31.4505 82.6412 31.4505C83.2149 31.4505 83.6876 31.2614 84.0593 30.8833L84.7145 31.6363C84.4798 31.9166 84.1831 32.1285 83.8245 32.272C83.466 32.4154 83.0617 32.4871 82.6119 32.4871C82.0381 32.4871 81.5328 32.373 81.096 32.1448C80.6592 31.9166 80.3202 31.6004 80.0789 31.1962C79.8442 30.7855 79.7269 30.3226 79.7269 29.8075C79.7269 29.299 79.841 28.8426 80.0691 28.4383C80.3039 28.0276 80.6266 27.7081 81.0373 27.4799C81.4481 27.2517 81.911 27.1376 82.4261 27.1376C82.9346 27.1376 83.3877 27.2517 83.7854 27.4799C84.1897 27.7016 84.5026 28.0178 84.7243 28.4286C84.9525 28.8328 85.0666 29.3022 85.0666 29.8368ZM82.4261 28.1156C82.0349 28.1156 81.7024 28.233 81.4285 28.4677C81.1612 28.6959 80.9982 29.0023 80.9395 29.387H83.9028C83.8506 29.0088 83.6909 28.7024 83.4236 28.4677C83.1563 28.233 82.8238 28.1156 82.4261 28.1156ZM87.4046 27.9591C87.7567 27.4115 88.3761 27.1376 89.2627 27.1376V28.3014C89.1584 28.2819 89.0639 28.2721 88.9791 28.2721C88.5032 28.2721 88.1316 28.4123 87.8642 28.6926C87.5969 28.9664 87.4633 29.3641 87.4633 29.8857V32.4187H86.2408V27.1963H87.4046V27.9591Z" fill="white"/>
</g>
<g filter="url(#filter2_d)">
<path d="M47.5321 9.59619C46.2585 8.36081 41.1117 4.43313 29.6477 4.37977C29.6477 4.37977 16.1286 3.52276 9.53832 9.87755C5.86976 13.7349 4.57923 19.379 4.4431 26.3766C4.30697 33.3741 4.13085 46.4879 16.1556 50.0437H16.1671L16.1594 55.4695C16.1594 55.4695 16.0825 57.6662 17.4584 58.1141C19.1227 58.6574 20.0995 56.9879 21.6884 55.1882C22.5605 54.2002 23.7649 52.7489 24.6725 51.6397C32.8963 52.3673 39.2213 50.7042 39.9397 50.4585C41.6001 49.8925 50.9961 48.6272 52.5243 35.5142C54.1017 21.9985 51.7613 13.4495 47.5321 9.59619Z" fill="white"/>
</g>
<path d="M44.8579 12.3265C43.7812 11.2981 39.1336 8.22821 29.4362 8.18374C29.4362 8.18374 17.9529 7.39061 12.3785 12.6984C9.27601 15.9186 8.23082 20.7074 8.11623 26.5512C8.00163 32.395 7.40789 43.5588 17.576 46.5284C17.576 46.5284 17.536 54.8163 17.5314 55.5447C17.5314 56.0541 17.6083 56.4026 17.8852 56.4745C18.0844 56.5254 18.3828 56.4171 18.6366 56.1511C20.2625 54.4347 25.4677 47.8333 25.4677 47.8333C32.4518 48.3127 38.0084 46.8631 38.606 46.6577C40.015 46.1815 47.6359 45.4935 48.9256 34.5416C50.2585 23.2525 48.4357 15.5467 44.8579 12.3265Z" fill="#7360F2"/>
<path d="M34.3668 26.0709C34.2407 23.398 32.9491 21.9942 30.4921 21.8595" stroke="white" stroke-width="1.48177" stroke-linecap="round" stroke-linejoin="round"/>
<path d="M37.6932 27.2433C37.7444 24.7531 37.0428 22.6726 35.5882 21.0017C34.1269 19.3248 32.1042 18.4015 29.5085 18.2018" stroke="white" stroke-width="1.48177" stroke-linecap="round" stroke-linejoin="round"/>
<path d="M41.0986 28.6436C41.0673 24.3224 39.8391 20.9192 37.4139 18.4339C34.9887 15.9485 31.9726 14.6927 28.3655 14.6663" stroke="white" stroke-width="1.48177" stroke-linecap="round" stroke-linejoin="round"/>
<path d="M30.6205 35.1997C30.6205 35.1997 31.5319 35.2805 32.0226 34.645L32.9793 33.3797C33.4408 32.7523 34.5544 32.3521 35.645 32.9908C36.4622 33.4808 37.2557 34.0135 38.0223 34.5868C38.746 35.1463 40.228 36.4464 40.2326 36.4464C40.9386 37.0729 41.1017 37.993 40.621 38.9632C40.621 38.9689 40.6172 38.9786 40.6172 38.9834C40.0877 39.9482 39.4156 40.8183 38.626 41.5609C38.6168 41.5658 38.6168 41.5706 38.6083 41.5755C37.9223 42.1781 37.2483 42.5206 36.5864 42.6031C36.4889 42.621 36.3899 42.6275 36.291 42.6225C35.9991 42.6254 35.7087 42.5785 35.4312 42.4834L35.4097 42.4503C34.3898 42.1479 32.6871 41.3911 29.8514 39.7467C28.2105 38.8062 26.6483 37.7214 25.1815 36.5038C24.4464 35.8938 23.7451 35.24 23.0812 34.5456L23.0104 34.4712L22.9396 34.3968L22.8689 34.3224C22.845 34.2982 22.822 34.2731 22.7981 34.2481C22.1376 33.5501 21.5156 32.8129 20.9354 32.04C19.7773 30.4983 18.7453 28.8563 17.8506 27.1317C16.2862 24.1499 15.5664 22.3615 15.2787 21.2878L15.2472 21.2652C15.157 20.9734 15.1126 20.6681 15.1157 20.3613C15.1103 20.2574 15.1162 20.1533 15.1334 20.0508C15.2159 19.3561 15.5423 18.647 16.1124 17.9237C16.117 17.9148 16.1217 17.9148 16.1263 17.9051C16.8325 17.075 17.6602 16.3687 18.5781 15.8127C18.5827 15.8127 18.592 15.8078 18.5974 15.8078C19.5203 15.3025 20.3955 15.4739 20.9908 16.2121C20.9954 16.2169 22.2298 17.7749 22.7597 18.5357C23.3051 19.3424 23.8118 20.1772 24.2779 21.0372C24.8854 22.1828 24.5047 23.356 23.9079 23.8394L22.7043 24.8452C22.0967 25.361 22.1767 26.3191 22.1767 26.3191C22.1767 26.3191 23.9595 33.4121 30.6205 35.1997Z" fill="white"/>
<defs>
<filter id="filter0_df" x="5.30201" y="8.19367" width="98.6859" height="42.9714" filterUnits="userSpaceOnUse" color-interpolation-filters="sRGB">
<feFlood flood-opacity="0" result="BackgroundImageFix"/>
<feColorMatrix in="SourceAlpha" type="matrix" values="0 0 0 0 0 0 0 0 0 0 0 0 0 0 0 0 0 0 127 0"/>
<feOffset dy="1.18542"/>
<feGaussianBlur stdDeviation="0.592708"/>
<feColorMatrix type="matrix" values="0 0 0 0 0 0 0 0 0 0 0 0 0 0 0 0 0 0 0.25 0"/>
<feBlend mode="normal" in2="BackgroundImageFix" result="effect1_dropShadow"/>
<feBlend mode="normal" in="SourceGraphic" in2="effect1_dropShadow" result="shape"/>
<feGaussianBlur stdDeviation="0.148177" result="effect2_foregroundBlur"/>
</filter>
<filter id="filter1_d" x="58.8932" y="21.0161" width="34.2221" height="15.3236" filterUnits="userSpaceOnUse" color-interpolation-filters="sRGB">
<feFlood flood-opacity="0" result="BackgroundImageFix"/>
<feColorMatrix in="SourceAlpha" type="matrix" values="0 0 0 0 0 0 0 0 0 0 0 0 0 0 0 0 0 0 127 0"/>
<feOffset/>
<feGaussianBlur stdDeviation="1.9263"/>
<feColorMatrix type="matrix" values="0 0 0 0 0 0 0 0 0 0 0 0 0 0 0 0 0 0 0.88 0"/>
<feBlend mode="normal" in2="BackgroundImageFix" result="effect1_dropShadow"/>
<feBlend mode="normal" in="SourceGraphic" in2="effect1_dropShadow" result="shape"/>
</filter>
<filter id="filter2_d" x="0.85676" y="0.784845" width="55.7181" height="60.9898" filterUnits="userSpaceOnUse" color-interpolation-filters="sRGB">
<feFlood flood-opacity="0" result="BackgroundImageFix"/>
<feColorMatrix in="SourceAlpha" type="matrix" values="0 0 0 0 0 0 0 0 0 0 0 0 0 0 0 0 0 0 127 0"/>
<feOffset/>
<feGaussianBlur stdDeviation="1.77812"/>
<feColorMatrix type="matrix" values="0 0 0 0 0 0 0 0 0 0 0 0 0 0 0 0 0 0 0.65 0"/>
<feBlend mode="normal" in2="BackgroundImageFix" result="effect1_dropShadow"/>
<feBlend mode="normal" in="SourceGraphic" in2="effect1_dropShadow" result="shape"/>
</filter>
<linearGradient id="paint0_linear" x1="26.0468" y1="8.49003" x2="89.0221" y2="48.7942" gradientUnits="userSpaceOnUse">
<stop stop-color="#9D8FFC"/>
<stop offset="1" stop-color="#705CF1"/>
</linearGradient>
</defs>
</svg>
