<svg width="108" height="56" viewBox="0 0 108 56" fill="none" xmlns="http://www.w3.org/2000/svg">
<g filter="url(#filter0_df)">
<rect x="10.1709" y="8.49002" width="96.3151" height="40.3042" rx="13.3359" fill="url(#paint0_linear)"/>
</g>
<g filter="url(#filter1_d)">
<path d="M28.5448 4.34109C15.2873 4.34109 4.54009 15.0883 4.54009 28.3458C4.54009 41.6033 15.2873 52.3505 28.5448 52.3505C41.8023 52.3505 52.5495 41.6033 52.5495 28.3458C52.5495 15.0883 41.8023 4.34109 28.5448 4.34109Z" fill="white"/>
</g>
<path d="M28.5448 8.19366C17.4151 8.19366 8.39276 17.216 8.39276 28.3457C8.39276 39.4755 17.4151 48.4978 28.5448 48.4978C39.6746 48.4978 48.6969 39.4755 48.6969 28.3457C48.6969 17.216 39.6746 8.19366 28.5448 8.19366Z" fill="#40B3E0"/>
<path d="M38.7181 19.4651L34.9837 38.293C34.9837 38.293 34.4615 39.5987 33.0252 38.972L24.4078 32.3652L21.2743 30.8508L15.9995 29.0749C15.9995 29.0749 15.19 28.7878 15.1116 28.1611C15.0332 27.5343 16.0256 27.1949 16.0256 27.1949L36.9944 18.9692C36.9944 18.9692 38.7179 18.212 38.7179 19.4654" fill="white"/>
<path d="M23.7457 38.0813C23.7457 38.0813 23.4941 38.0578 23.1805 37.0653C22.8674 36.073 21.2744 30.8505 21.2744 30.8505L33.9393 22.8077C33.9393 22.8077 34.6705 22.3637 34.6444 22.8077C34.6444 22.8077 34.7749 22.8861 34.3831 23.2516C33.9915 23.6174 24.4341 32.2085 24.4341 32.2085" fill="#D2E5F1"/>
<path d="M27.712 34.8982L24.3036 38.0059C24.3036 38.0059 24.0371 38.2082 23.7457 38.0814L24.3984 32.309" fill="#B5CFE4"/>
<g filter="url(#filter2_d)">
<path d="M58.7101 26.6487H56.4412V25.5729H62.2504V26.6487H59.9815V32.4187H58.7101V26.6487ZM67.4617 29.8368C67.4617 29.9216 67.4552 30.0422 67.4422 30.1987H63.3445C63.4162 30.5833 63.602 30.8898 63.9019 31.118C64.2084 31.3396 64.5865 31.4505 65.0364 31.4505C65.6101 31.4505 66.0828 31.2614 66.4544 30.8833L67.1097 31.6363C66.875 31.9166 66.5783 32.1285 66.2197 32.272C65.8611 32.4154 65.4569 32.4871 65.007 32.4871C64.4333 32.4871 63.928 32.373 63.4912 32.1448C63.0544 31.9166 62.7153 31.6004 62.4741 31.1962C62.2394 30.7855 62.122 30.3226 62.122 29.8075C62.122 29.299 62.2361 28.8426 62.4643 28.4383C62.699 28.0276 63.0218 27.7081 63.4325 27.4799C63.8432 27.2517 64.3062 27.1376 64.8212 27.1376C65.3298 27.1376 65.7829 27.2517 66.1806 27.4799C66.5848 27.7016 66.8978 28.0178 67.1194 28.4286C67.3476 28.8328 67.4617 29.3022 67.4617 29.8368ZM64.8212 28.1156C64.43 28.1156 64.0975 28.233 63.8237 28.4677C63.5564 28.6959 63.3934 29.0023 63.3347 29.387H66.298C66.2458 29.0088 66.0861 28.7024 65.8187 28.4677C65.5514 28.233 65.2189 28.1156 64.8212 28.1156ZM68.636 25.1621H69.8584V32.4187H68.636V25.1621ZM76.3723 29.8368C76.3723 29.9216 76.3658 30.0422 76.3528 30.1987H72.2551C72.3268 30.5833 72.5126 30.8898 72.8125 31.118C73.119 31.3396 73.4971 31.4505 73.947 31.4505C74.5207 31.4505 74.9934 31.2614 75.365 30.8833L76.0203 31.6363C75.7855 31.9166 75.4889 32.1285 75.1303 32.272C74.7717 32.4154 74.3675 32.4871 73.9176 32.4871C73.3439 32.4871 72.8386 32.373 72.4018 32.1448C71.9649 31.9166 71.6259 31.6004 71.3847 31.1962C71.15 30.7855 71.0326 30.3226 71.0326 29.8075C71.0326 29.299 71.1467 28.8426 71.3749 28.4383C71.6096 28.0276 71.9323 27.7081 72.3431 27.4799C72.7538 27.2517 73.2167 27.1376 73.7318 27.1376C74.2404 27.1376 74.6935 27.2517 75.0912 27.4799C75.4954 27.7016 75.8084 28.0178 76.03 28.4286C76.2582 28.8328 76.3723 29.3022 76.3723 29.8368ZM73.7318 28.1156C73.3406 28.1156 73.0081 28.233 72.7343 28.4677C72.467 28.6959 72.304 29.0023 72.2453 29.387H75.2085C75.1564 29.0088 74.9967 28.7024 74.7293 28.4677C74.462 28.233 74.1295 28.1156 73.7318 28.1156ZM82.7298 27.1963V31.6265C82.7298 33.4651 81.791 34.3844 79.9133 34.3844C79.4112 34.3844 78.9353 34.3192 78.4854 34.1888C78.0356 34.0649 77.6639 33.8824 77.3705 33.6411L77.9182 32.7218C78.1464 32.9109 78.4333 33.0609 78.7788 33.1717C79.1309 33.2891 79.4862 33.3477 79.8448 33.3477C80.4185 33.3477 80.8391 33.2173 81.1064 32.9566C81.3737 32.6958 81.5073 32.2981 81.5073 31.7634V31.4896C81.2987 31.7178 81.0444 31.8906 80.7445 32.0079C80.4446 32.1253 80.1154 32.184 79.7568 32.184C79.2613 32.184 78.8114 32.0796 78.4072 31.871C78.0095 31.6559 77.6933 31.3559 77.4586 30.9713C77.2304 30.5866 77.1163 30.1465 77.1163 29.651C77.1163 29.1555 77.2304 28.7187 77.4586 28.3405C77.6933 27.9559 78.0095 27.6592 78.4072 27.4506C78.8114 27.242 79.2613 27.1376 79.7568 27.1376C80.1349 27.1376 80.4772 27.1996 80.7837 27.3235C81.0966 27.4473 81.3574 27.6364 81.566 27.8907V27.1963H82.7298ZM79.9426 31.1473C80.4055 31.1473 80.7837 31.0104 81.077 30.7366C81.377 30.4562 81.5269 30.0944 81.5269 29.651C81.5269 29.2142 81.377 28.8589 81.077 28.585C80.7837 28.3112 80.4055 28.1743 79.9426 28.1743C79.4732 28.1743 79.0885 28.3112 78.7886 28.585C78.4952 28.8589 78.3485 29.2142 78.3485 29.651C78.3485 30.0944 78.4952 30.4562 78.7886 30.7366C79.0885 31.0104 79.4732 31.1473 79.9426 31.1473ZM85.5007 27.9591C85.8528 27.4115 86.4722 27.1376 87.3589 27.1376V28.3014C87.2546 28.2819 87.16 28.2721 87.0753 28.2721C86.5993 28.2721 86.2277 28.4123 85.9604 28.6926C85.6931 28.9664 85.5594 29.3641 85.5594 29.8857V32.4187H84.337V27.1963H85.5007V27.9591ZM90.3623 27.1376C91.1317 27.1376 91.7184 27.3235 92.1227 27.6951C92.5334 28.0602 92.7388 28.6144 92.7388 29.3576V32.4187H91.5848V31.783C91.4348 32.0112 91.2197 32.1872 90.9393 32.3111C90.6655 32.4285 90.333 32.4871 89.9418 32.4871C89.5506 32.4871 89.2083 32.4219 88.9149 32.2915C88.6215 32.1546 88.3933 31.9688 88.2304 31.7341C88.0739 31.4929 87.9956 31.2223 87.9956 30.9224C87.9956 30.453 88.1684 30.0781 88.514 29.7977C88.866 29.5108 89.417 29.3674 90.1667 29.3674H91.5163V29.2892C91.5163 28.9241 91.4055 28.6437 91.1838 28.4481C90.9687 28.2525 90.6459 28.1547 90.2156 28.1547C89.9222 28.1547 89.6321 28.2004 89.3452 28.2916C89.0649 28.3829 88.8269 28.5101 88.6313 28.6731L88.1521 27.7831C88.4259 27.5745 88.7552 27.4147 89.1399 27.3039C89.5245 27.1931 89.932 27.1376 90.3623 27.1376ZM90.1961 31.5972C90.5025 31.5972 90.7731 31.5287 91.0078 31.3918C91.249 31.2484 91.4185 31.0463 91.5163 30.7855V30.1791H90.2547C89.5506 30.1791 89.1985 30.4106 89.1985 30.8735C89.1985 31.0952 89.2866 31.2712 89.4626 31.4016C89.6386 31.532 89.8831 31.5972 90.1961 31.5972ZM100.899 27.1376C101.558 27.1376 102.079 27.33 102.464 27.7146C102.849 28.0928 103.041 28.6633 103.041 29.4261V32.4187H101.818V29.5826C101.818 29.1262 101.717 28.7839 101.515 28.5557C101.313 28.321 101.023 28.2036 100.645 28.2036C100.234 28.2036 99.9049 28.3405 99.6571 28.6144C99.4094 28.8817 99.2855 29.2664 99.2855 29.7684V32.4187H98.0631V29.5826C98.0631 29.1262 97.962 28.7839 97.7599 28.5557C97.5578 28.321 97.2676 28.2036 96.8895 28.2036C96.4722 28.2036 96.1397 28.3373 95.892 28.6046C95.6507 28.8719 95.5301 29.2598 95.5301 29.7684V32.4187H94.3077V27.1963H95.4714V27.8613C95.667 27.6266 95.9115 27.4473 96.2049 27.3235C96.4983 27.1996 96.8243 27.1376 97.1829 27.1376C97.5741 27.1376 97.9196 27.2126 98.2195 27.3626C98.526 27.506 98.7672 27.7212 98.9432 28.008C99.1584 27.7342 99.4355 27.5223 99.7745 27.3724C100.114 27.2159 100.488 27.1376 100.899 27.1376Z" fill="white"/>
</g>
<defs>
<filter id="filter0_df" x="8.98547" y="8.19367" width="98.6859" height="42.9714" filterUnits="userSpaceOnUse" color-interpolation-filters="sRGB">
<feFlood flood-opacity="0" result="BackgroundImageFix"/>
<feColorMatrix in="SourceAlpha" type="matrix" values="0 0 0 0 0 0 0 0 0 0 0 0 0 0 0 0 0 0 127 0"/>
<feOffset dy="1.18542"/>
<feGaussianBlur stdDeviation="0.592708"/>
<feColorMatrix type="matrix" values="0 0 0 0 0 0 0 0 0 0 0 0 0 0 0 0 0 0 0.25 0"/>
<feBlend mode="normal" in2="BackgroundImageFix" result="effect1_dropShadow"/>
<feBlend mode="normal" in="SourceGraphic" in2="effect1_dropShadow" result="shape"/>
<feGaussianBlur stdDeviation="0.148177" result="effect2_foregroundBlur"/>
</filter>
<filter id="filter1_d" x="0.983843" y="0.784845" width="55.1219" height="55.1219" filterUnits="userSpaceOnUse" color-interpolation-filters="sRGB">
<feFlood flood-opacity="0" result="BackgroundImageFix"/>
<feColorMatrix in="SourceAlpha" type="matrix" values="0 0 0 0 0 0 0 0 0 0 0 0 0 0 0 0 0 0 127 0"/>
<feOffset/>
<feGaussianBlur stdDeviation="1.77812"/>
<feColorMatrix type="matrix" values="0 0 0 0 0 0 0 0 0 0 0 0 0 0 0 0 0 0 0.65 0"/>
<feBlend mode="normal" in2="BackgroundImageFix" result="effect1_dropShadow"/>
<feBlend mode="normal" in="SourceGraphic" in2="effect1_dropShadow" result="shape"/>
</filter>
<filter id="filter2_d" x="52.5886" y="21.3095" width="54.3049" height="16.9275" filterUnits="userSpaceOnUse" color-interpolation-filters="sRGB">
<feFlood flood-opacity="0" result="BackgroundImageFix"/>
<feColorMatrix in="SourceAlpha" type="matrix" values="0 0 0 0 0 0 0 0 0 0 0 0 0 0 0 0 0 0 127 0"/>
<feOffset/>
<feGaussianBlur stdDeviation="1.9263"/>
<feColorMatrix type="matrix" values="0 0 0 0 0 0 0 0 0 0 0 0 0 0 0 0 0 0 0.88 0"/>
<feBlend mode="normal" in2="BackgroundImageFix" result="effect1_dropShadow"/>
<feBlend mode="normal" in="SourceGraphic" in2="effect1_dropShadow" result="shape"/>
</filter>
<linearGradient id="paint0_linear" x1="29.7303" y1="8.49003" x2="92.7055" y2="48.7942" gradientUnits="userSpaceOnUse">
<stop stop-color="#217697"/>
<stop offset="1" stop-color="#40B3E0"/>
</linearGradient>
</defs>
</svg>
