<svg width="109" height="53" viewBox="0 0 109 53" fill="none" xmlns="http://www.w3.org/2000/svg">
<g filter="url(#filter0_df)">
<rect x="7.70518" y="6.48975" width="98.3896" height="40.3042" rx="13.3359" fill="url(#paint0_linear)"/>
</g>
<g filter="url(#filter1_d)">
<path d="M61.8968 23.5729L59.6279 30.4187H58.2783L56.5864 25.3528L54.8652 30.4187H53.5058L51.2369 23.5729H52.5572L54.2589 28.7757L56.029 23.5729H57.2025L58.9336 28.805L60.6841 23.5729H61.8968ZM65.9217 25.1376C66.5802 25.1376 67.1083 25.33 67.506 25.7146C67.9037 26.0993 68.1025 26.6698 68.1025 27.4261V30.4187H66.8801V27.5826C66.8801 27.1262 66.7725 26.7839 66.5574 26.5557C66.3422 26.321 66.0358 26.2036 65.6381 26.2036C65.1882 26.2036 64.8329 26.3405 64.5721 26.6144C64.3113 26.8817 64.1809 27.2696 64.1809 27.7782V30.4187H62.9584V23.1621H64.1809V25.8027C64.383 25.5875 64.6308 25.4245 64.9241 25.3137C65.2241 25.1963 65.5566 25.1376 65.9217 25.1376ZM71.6484 25.1376C72.4177 25.1376 73.0045 25.3235 73.4087 25.6951C73.8195 26.0602 74.0248 26.6144 74.0248 27.3576V30.4187H72.8708V29.783C72.7209 30.0112 72.5057 30.1872 72.2254 30.3111C71.9515 30.4285 71.619 30.4871 71.2278 30.4871C70.8367 30.4871 70.4944 30.4219 70.201 30.2915C69.9076 30.1546 69.6794 29.9688 69.5164 29.7341C69.3599 29.4929 69.2817 29.2223 69.2817 28.9224C69.2817 28.453 69.4545 28.0781 69.8 27.7977C70.1521 27.5108 70.703 27.3674 71.4528 27.3674H72.8024V27.2892C72.8024 26.9241 72.6915 26.6437 72.4699 26.4481C72.2547 26.2525 71.932 26.1547 71.5017 26.1547C71.2083 26.1547 70.9181 26.2004 70.6313 26.2916C70.3509 26.3829 70.113 26.5101 69.9174 26.6731L69.4382 25.7831C69.712 25.5745 70.0412 25.4147 70.4259 25.3039C70.8106 25.1931 71.2181 25.1376 71.6484 25.1376ZM71.4821 29.5972C71.7885 29.5972 72.0591 29.5287 72.2938 29.3918C72.5351 29.2484 72.7046 29.0463 72.8024 28.7855V28.1791H71.5408C70.8367 28.1791 70.4846 28.4106 70.4846 28.8735C70.4846 29.0952 70.5726 29.2712 70.7486 29.4016C70.9247 29.532 71.1692 29.5972 71.4821 29.5972ZM78.733 30.1351C78.5895 30.2524 78.4135 30.3404 78.2049 30.3991C78.0028 30.4578 77.7876 30.4871 77.5594 30.4871C76.9857 30.4871 76.5423 30.3372 76.2294 30.0373C75.9164 29.7374 75.76 29.3005 75.76 28.7268V26.2134H74.8993V25.2354H75.76V24.0423H76.9824V25.2354H78.3809V26.2134H76.9824V28.6974C76.9824 28.9517 77.0444 29.1473 77.1682 29.2842C77.2921 29.4146 77.4714 29.4798 77.7061 29.4798C77.9799 29.4798 78.2081 29.4081 78.3907 29.2647L78.733 30.1351ZM81.3523 30.4871C80.9285 30.4871 80.5145 30.4317 80.1102 30.3209C79.706 30.21 79.3833 30.0699 79.1421 29.9003L79.6115 28.9713C79.8462 29.1278 80.1265 29.2549 80.4525 29.3527C80.785 29.444 81.111 29.4896 81.4305 29.4896C82.1607 29.4896 82.5258 29.2973 82.5258 28.9126C82.5258 28.73 82.4313 28.6029 82.2422 28.5312C82.0597 28.4595 81.763 28.391 81.3523 28.3258C80.922 28.2606 80.5699 28.1856 80.2961 28.1009C80.0287 28.0161 79.794 27.8694 79.5919 27.6608C79.3963 27.4456 79.2985 27.149 79.2985 26.7708C79.2985 26.2753 79.5039 25.8809 79.9146 25.5875C80.3319 25.2876 80.8926 25.1376 81.5968 25.1376C81.9553 25.1376 82.3139 25.18 82.6725 25.2648C83.0311 25.343 83.3245 25.4506 83.5527 25.5875L83.0833 26.5166C82.6399 26.2558 82.1412 26.1254 81.587 26.1254C81.2284 26.1254 80.9546 26.1808 80.7655 26.2916C80.5829 26.396 80.4916 26.5361 80.4916 26.7122C80.4916 26.9078 80.5894 27.0479 80.785 27.1327C80.9872 27.2109 81.2968 27.2859 81.7141 27.3576C82.1314 27.4228 82.4737 27.4978 82.741 27.5826C83.0083 27.6673 83.2365 27.8108 83.4256 28.0129C83.6211 28.215 83.7189 28.5019 83.7189 28.8735C83.7189 29.3625 83.5071 29.7537 83.0833 30.047C82.6595 30.3404 82.0825 30.4871 81.3523 30.4871ZM89.329 28.8344H85.9062L85.2314 30.4187H83.9209L87.0015 23.5729H88.2533L91.3437 30.4187H90.0136L89.329 28.8344ZM88.9085 27.8368L87.6176 24.8442L86.3365 27.8368H88.9085ZM94.9917 25.1376C95.5003 25.1376 95.9534 25.2485 96.3511 25.4701C96.7553 25.6918 97.0715 26.0048 97.2997 26.409C97.5279 26.8132 97.642 27.2794 97.642 27.8075C97.642 28.3356 97.5279 28.805 97.2997 29.2158C97.0715 29.62 96.7553 29.9329 96.3511 30.1546C95.9534 30.3763 95.5003 30.4871 94.9917 30.4871C94.2876 30.4871 93.7301 30.2524 93.3194 29.783V32.3159H92.0969V25.1963H93.2607V25.8809C93.4628 25.6331 93.7106 25.4473 94.004 25.3235C94.3039 25.1996 94.6331 25.1376 94.9917 25.1376ZM94.8548 29.4407C95.3047 29.4407 95.673 29.2907 95.9599 28.9908C96.2533 28.6909 96.4 28.2965 96.4 27.8075C96.4 27.3185 96.2533 26.9241 95.9599 26.6242C95.673 26.3242 95.3047 26.1743 94.8548 26.1743C94.5614 26.1743 94.2974 26.2427 94.0626 26.3797C93.8279 26.5101 93.6421 26.6991 93.5052 26.9469C93.3683 27.1946 93.2998 27.4815 93.2998 27.8075C93.2998 28.1335 93.3683 28.4204 93.5052 28.6681C93.6421 28.9159 93.8279 29.1082 94.0626 29.2451C94.2974 29.3755 94.5614 29.4407 94.8548 29.4407ZM101.696 25.1376C102.205 25.1376 102.658 25.2485 103.056 25.4701C103.46 25.6918 103.776 26.0048 104.004 26.409C104.232 26.8132 104.346 27.2794 104.346 27.8075C104.346 28.3356 104.232 28.805 104.004 29.2158C103.776 29.62 103.46 29.9329 103.056 30.1546C102.658 30.3763 102.205 30.4871 101.696 30.4871C100.992 30.4871 100.435 30.2524 100.024 29.783V32.3159H98.8014V25.1963H99.9651V25.8809C100.167 25.6331 100.415 25.4473 100.708 25.3235C101.008 25.1996 101.338 25.1376 101.696 25.1376ZM101.559 29.4407C102.009 29.4407 102.377 29.2907 102.664 28.9908C102.958 28.6909 103.104 28.2965 103.104 27.8075C103.104 27.3185 102.958 26.9241 102.664 26.6242C102.377 26.3242 102.009 26.1743 101.559 26.1743C101.266 26.1743 101.002 26.2427 100.767 26.3797C100.532 26.5101 100.347 26.6991 100.21 26.9469C100.073 27.1946 100.004 27.4815 100.004 27.8075C100.004 28.1335 100.073 28.4204 100.21 28.6681C100.347 28.9159 100.532 29.1082 100.767 29.2451C101.002 29.3755 101.266 29.4407 101.559 29.4407Z" fill="white"/>
</g>
<g filter="url(#filter2_f)">
<path d="M2.37082 50.6468L5.76312 38.2461C3.67731 34.6174 2.5656 30.4955 2.57706 26.2816C2.57706 13.0769 13.3043 2.34109 26.4843 2.34109C32.8794 2.34109 38.8849 4.83277 43.3891 9.35671C47.9046 13.8806 50.3916 19.8974 50.3802 26.2931C50.3802 39.4976 39.6527 50.2336 26.4729 50.2336H26.4614C22.4616 50.2336 18.5305 49.2232 15.035 47.3169L2.37082 50.6468ZM15.631 42.9766L16.3529 43.4131C19.4015 45.2272 22.8971 46.1801 26.4614 46.1916H26.4729C37.418 46.1916 46.3343 37.27 46.3343 26.2931C46.3343 20.9767 44.2714 15.982 40.5238 12.2157C36.7761 8.44954 31.7791 6.38282 26.4729 6.38282C15.5163 6.38282 6.59978 15.3045 6.59978 26.2814C6.59978 30.0362 7.64268 33.699 9.63693 36.8682L10.1068 37.626L8.10125 44.9631L15.631 42.9766Z" fill="black" fill-opacity="0.24"/>
</g>
<path d="M3.45518 49.3668L6.69225 37.5394C4.69618 34.0702 3.64615 30.136 3.64758 26.1318C3.64758 13.5446 13.8797 3.3049 26.4317 3.3049C32.5325 3.3049 38.2485 5.68623 42.5494 9.9952C46.8503 14.3044 49.2162 20.0423 49.2162 26.1431C49.2162 38.73 38.9841 48.9697 26.4319 48.9697H26.4206C22.6061 48.9697 18.8596 48.0059 15.532 46.1916L3.45518 49.367V49.3668Z" fill="url(#paint1_linear)"/>
<path d="M3.58773 49.0794L6.79808 37.394C4.82416 33.975 3.77192 30.0906 3.78291 26.1198C3.78291 13.6769 13.9349 3.56033 26.4081 3.56033C32.46 3.56033 38.1432 5.90811 42.406 10.1712C46.6792 14.4342 49.0328 20.1038 49.022 26.1305C49.022 38.5734 38.8701 48.69 26.3969 48.69H26.3863C22.6083 48.6885 18.8908 47.7437 15.5726 45.9416L3.58773 49.0796V49.0794ZM16.1365 41.8517L16.8198 42.2629C19.705 43.9725 23.013 44.8706 26.3863 44.8814H26.3971C36.755 44.8814 45.1934 36.4744 45.1934 26.1305C45.1934 21.121 43.241 16.4143 39.6944 12.8654C36.1477 9.31654 31.4187 7.36895 26.3971 7.36895C16.0282 7.36895 7.58996 15.7759 7.58996 26.1198C7.58996 29.6579 8.57682 33.1094 10.4641 36.0955L10.9089 36.8097L9.01076 43.7235L16.1365 41.8517Z" fill="white"/>
<path d="M20.5351 16.2322C20.0935 15.2456 19.6294 15.2228 19.2108 15.2115C18.8713 15.2003 18.4752 15.2003 18.0789 15.2003C17.6828 15.2003 17.0489 15.3477 16.5057 15.9372C15.9623 16.527 14.4456 17.9558 14.4456 20.8703C14.4456 23.773 16.5622 26.5853 16.8565 26.9821C17.1507 27.3791 20.9425 33.5365 26.93 35.9065C31.9101 37.8797 32.9289 37.4827 34.0041 37.3807C35.0907 37.2787 37.4903 35.9519 37.9882 34.5685C38.4749 33.185 38.4749 32.0057 38.3277 31.7562C38.1806 31.5066 37.7845 31.3594 37.1959 31.0644C36.6074 30.7696 33.7098 29.3408 33.1666 29.1368C32.6232 28.9327 32.2271 28.842 31.8423 29.4316C31.446 30.0212 30.3144 31.3479 29.9746 31.7449C29.6351 32.1418 29.2843 32.1871 28.6956 31.8923C28.1071 31.5976 26.2056 30.9737 23.9533 28.9553C22.1989 27.3904 21.0105 25.4513 20.6708 24.8617C20.3312 24.2721 20.6369 23.9543 20.9312 23.6597C21.1914 23.3988 21.5197 22.9679 21.8141 22.6277C22.1084 22.2876 22.2102 22.0382 22.4026 21.6411C22.595 21.2443 22.5044 20.9042 22.3573 20.6094C22.2102 20.3144 21.0558 17.4001 20.5351 16.2322Z" fill="white"/>
<defs>
<filter id="filter0_df" x="6.51976" y="6.19339" width="100.76" height="42.9714" filterUnits="userSpaceOnUse" color-interpolation-filters="sRGB">
<feFlood flood-opacity="0" result="BackgroundImageFix"/>
<feColorMatrix in="SourceAlpha" type="matrix" values="0 0 0 0 0 0 0 0 0 0 0 0 0 0 0 0 0 0 127 0"/>
<feOffset dy="1.18542"/>
<feGaussianBlur stdDeviation="0.592708"/>
<feColorMatrix type="matrix" values="0 0 0 0 0 0 0 0 0 0 0 0 0 0 0 0 0 0 0.25 0"/>
<feBlend mode="normal" in2="BackgroundImageFix" result="effect1_dropShadow"/>
<feBlend mode="normal" in="SourceGraphic" in2="effect1_dropShadow" result="shape"/>
<feGaussianBlur stdDeviation="0.148177" result="effect2_foregroundBlur"/>
</filter>
<filter id="filter1_d" x="47.3843" y="19.3095" width="60.8147" height="16.859" filterUnits="userSpaceOnUse" color-interpolation-filters="sRGB">
<feFlood flood-opacity="0" result="BackgroundImageFix"/>
<feColorMatrix in="SourceAlpha" type="matrix" values="0 0 0 0 0 0 0 0 0 0 0 0 0 0 0 0 0 0 127 0"/>
<feOffset/>
<feGaussianBlur stdDeviation="1.9263"/>
<feColorMatrix type="matrix" values="0 0 0 0 0 0 0 0 0 0 0 0 0 0 0 0 0 0 0.88 0"/>
<feBlend mode="normal" in2="BackgroundImageFix" result="effect1_dropShadow"/>
<feBlend mode="normal" in="SourceGraphic" in2="effect1_dropShadow" result="shape"/>
</filter>
<filter id="filter2_f" x="0.592692" y="0.56297" width="51.5656" height="51.862" filterUnits="userSpaceOnUse" color-interpolation-filters="sRGB">
<feFlood flood-opacity="0" result="BackgroundImageFix"/>
<feBlend mode="normal" in="SourceGraphic" in2="BackgroundImageFix" result="shape"/>
<feGaussianBlur stdDeviation="0.889062" result="effect1_foregroundBlur"/>
</filter>
<linearGradient id="paint0_linear" x1="27.6858" y1="6.48975" x2="91.2137" y2="48.0233" gradientUnits="userSpaceOnUse">
<stop stop-color="#44D956"/>
<stop offset="1" stop-color="#2AA639"/>
</linearGradient>
<linearGradient id="paint1_linear" x1="26.3348" y1="49.3637" x2="26.3348" y2="3.30214" gradientUnits="userSpaceOnUse">
<stop stop-color="#20B038"/>
<stop offset="1" stop-color="#60D66A"/>
</linearGradient>
</defs>
</svg>
