<svg width="66" height="73" viewBox="0 0 66 73" fill="none" xmlns="http://www.w3.org/2000/svg">
<g filter="url(#filter0_d)">
<path d="M31.881 25.3032C32.3075 23.3774 31.9767 21.3885 30.9466 19.7027C28.7654 16.1334 24.0916 15.0025 20.5257 17.1814C16.9602 19.3602 15.8339 24.0354 18.015 27.6048C19.0448 29.29 20.6633 30.4929 22.5729 30.9911C22.9101 31.0795 23.1137 31.4244 23.0259 31.7621C22.9828 31.9268 22.8794 32.0598 22.7449 32.142C22.6033 32.2285 22.4291 32.2586 22.2564 32.2134C20.0283 31.6323 18.1392 30.229 16.9378 28.263C14.3932 24.0989 15.7068 18.6437 19.8674 16.1013C24.0276 13.5591 29.4816 14.8789 32.0262 19.043C33.2275 21.009 33.6149 23.3299 33.1154 25.5777C33.041 25.9186 32.7035 26.1318 32.3619 26.0572C32.0196 25.9814 31.8044 25.6445 31.881 25.3032ZM21.7424 37.0819C21.8274 36.7439 21.6229 36.3997 21.2844 36.3135C17.9558 35.4702 15.1355 33.3913 13.3439 30.4593C9.58795 24.3128 11.5278 16.259 17.6684 12.5067C23.8087 8.75455 31.8605 10.7027 35.6165 16.8492C37.4085 19.7817 37.9722 23.2396 37.2034 26.5867C37.1254 26.9267 37.3375 27.2661 37.6781 27.3442C37.8458 27.3828 38.0136 27.3508 38.1489 27.2681C38.2882 27.183 38.395 27.0434 38.4353 26.871C39.2785 23.1997 38.6593 19.4067 36.6942 16.1908C32.5744 9.44871 23.744 7.31259 17.0092 11.428C10.2742 15.5436 8.14656 24.3758 12.2663 31.1177C14.2315 34.3336 17.3248 36.6139 20.9754 37.5394C21.3134 37.6247 21.6574 37.4196 21.7424 37.0819ZM58.3778 46.4807L58.9768 48.8517C59.0455 49.1213 58.9291 49.4048 58.6916 49.5499C58.6911 49.5502 58.6911 49.5502 58.6911 49.5502L47.1574 56.5749C46.9304 56.7137 46.6425 56.6958 46.4336 56.5325C46.2244 56.3696 46.1386 56.0941 46.2184 55.8405C46.2167 55.8415 46.2473 55.6811 46.1265 55.5005C46.0075 55.3235 45.6542 55.0013 44.6297 54.8359C44.2979 54.765 37.1563 53.234 33.1793 51.0532C32.1897 50.6291 24.7898 47.3663 24.2097 44.2975C24.0719 43.5708 24.2938 42.8908 24.8541 42.3275C25.0865 42.0405 25.3569 41.8016 25.6583 41.6175C27.3874 40.5608 29.7083 41.4764 31.4024 42.1446C31.7762 42.293 32.2463 42.4779 32.5717 42.573C32.4252 42.1438 31.9983 41.2416 30.829 39.3486C30.8173 39.3294 30.8055 39.3088 30.7952 39.287C30.7814 39.2566 29.329 36.2411 23.8008 27.157C23.6773 27.2014 23.5412 27.2188 23.4059 27.1774C22.5433 26.9136 21.8094 26.3445 21.3381 25.5733C20.278 23.8384 20.8251 21.5653 22.5582 20.5063C24.2913 19.4472 26.5636 19.9975 27.6238 21.7323C28.0424 22.4174 28.2094 23.2116 28.1337 24.0034C28.2123 24.1062 28.2936 24.2132 28.3815 24.3284C29.1278 25.3119 30.0796 26.6143 31.0865 27.9933C32.4094 29.806 34.1241 32.1531 34.9798 33.1959C35.3032 32.668 35.8164 32.0032 36.5417 31.56C37.3397 31.0724 38.6044 30.726 40.2529 31.6314C40.5374 31.2629 40.9775 30.7838 41.564 30.4255C42.5104 29.8472 44.0006 29.4692 45.827 30.8102C46.5649 30.5221 48.2669 30.0054 49.9247 30.5671C51.0867 30.9604 51.992 31.7929 52.6192 33.0423C53.1583 33.7374 57.9225 40.0303 58.3778 46.4807ZM22.415 24.9161C22.5488 25.1351 22.7198 25.3238 22.9117 25.4876C22.0495 23.3326 22.6169 22.3807 23.2985 21.9642C24.2183 21.4021 25.5944 21.7393 26.4668 22.2879C25.7426 21.2367 24.3181 20.9138 23.2169 21.5867C22.077 22.2825 21.7183 23.776 22.415 24.9161ZM51.5777 33.7807C51.5493 33.7445 51.5255 33.7056 51.5051 33.6644C51.0328 32.7001 50.3667 32.0652 49.5231 31.7773C47.8765 31.2134 46.0336 32.107 46.0145 32.1163C45.7892 32.2268 45.5185 32.1969 45.3256 32.0371C44.1938 31.1013 43.1801 30.9307 42.2259 31.5138C41.4499 31.9879 40.9985 32.7932 40.9942 32.8013C40.9084 32.9577 40.7581 33.0728 40.5838 33.1134C40.4093 33.1548 40.2249 33.1218 40.0772 33.0196C38.9734 32.2629 38.0331 32.1413 37.2035 32.6482C36.2419 33.2358 35.7469 34.4717 35.7423 34.4846C35.6691 34.6752 35.5084 34.8191 35.3122 34.8707C34.7198 35.0281 34.6572 35.0447 30.057 28.7449C29.0181 27.3238 27.811 25.6704 27.0153 24.6407C26.9863 24.6092 26.9601 24.5791 26.9388 24.5428C26.6244 24.1387 26.3797 23.8397 26.2502 23.7133C26.1818 23.6804 26.1195 23.6343 26.0652 23.5779C25.6343 23.1251 24.4299 22.7644 23.9603 23.0514C23.653 23.2391 23.5801 24.0366 24.3789 25.6682C30.1211 35.0665 31.7456 38.3372 31.9262 38.7106C33.7481 41.6647 34.0243 42.587 33.8829 43.1796C33.8232 43.4309 33.68 43.6315 33.4685 43.7607C32.9009 44.1076 32.1182 43.7989 30.9335 43.3319C29.4875 42.761 27.5089 41.9805 26.3201 42.7069C26.1362 42.8193 25.969 42.9696 25.8243 43.1525C25.808 43.1727 25.79 43.192 25.7714 43.2112C25.4159 43.5602 25.4173 43.8493 25.4571 44.0638C25.805 45.9013 30.6998 48.6169 33.7033 49.896C33.723 49.9034 33.7416 49.9137 33.761 49.9244C37.5667 52.0207 44.7889 53.5698 44.8606 53.585C46.0125 53.7711 46.8157 54.2 47.2192 54.8527C47.2489 54.9013 47.2749 54.9489 47.2991 54.9962L57.6251 48.7072L57.128 46.7362C57.1186 46.6993 57.1117 46.6616 57.1091 46.6229C56.6922 40.31 51.6299 33.8448 51.5777 33.7807Z" fill="black" fill-opacity="0.7"/>
</g>
<defs>
<filter id="filter0_d" x="0.795288" y="0.374527" width="64.9605" height="71.82" filterUnits="userSpaceOnUse" color-interpolation-filters="sRGB">
<feFlood flood-opacity="0" result="BackgroundImageFix"/>
<feColorMatrix in="SourceAlpha" type="matrix" values="0 0 0 0 0 0 0 0 0 0 0 0 0 0 0 0 0 0 127 0"/>
<feOffset dy="3"/>
<feGaussianBlur stdDeviation="2"/>
<feColorMatrix type="matrix" values="0 0 0 0 0 0 0 0 0 0 0 0 0 0 0 0 0 0 0.3 0"/>
<feBlend mode="normal" in2="BackgroundImageFix" result="effect1_dropShadow"/>
<feBlend mode="normal" in="SourceGraphic" in2="effect1_dropShadow" result="shape"/>
</filter>
</defs>
</svg>
