<svg width="33" height="33" viewBox="0 0 33 33" fill="none" xmlns="http://www.w3.org/2000/svg">
<path d="M28.1605 23.2821C26.1601 23.2821 24.2398 22.9621 22.4474 22.37C21.8873 22.1939 21.2632 22.3219 20.8151 22.77L17.2944 26.2907C12.7548 23.9755 9.06353 20.2842 6.74834 15.7447L10.269 12.224C10.7171 11.7759 10.8451 11.1518 10.6691 10.5917C10.062 8.74819 9.75407 6.8194 9.75693 4.87854C9.75693 4.45411 9.58833 4.04707 9.28821 3.74695C8.98809 3.44683 8.58105 3.27823 8.15662 3.27823H2.55553C2.1311 3.27823 1.72405 3.44683 1.42394 3.74695C1.12382 4.04707 0.955215 4.45411 0.955215 4.87854C0.955215 12.0938 3.82148 19.0136 8.92346 24.1156C14.0254 29.2176 20.9452 32.0839 28.1605 32.0839C28.5849 32.0839 28.992 31.9153 29.2921 31.6151C29.5922 31.315 29.7608 30.908 29.7608 30.4835V24.8824C29.7608 24.458 29.5922 24.051 29.2921 23.7509C28.992 23.4507 28.5849 23.2821 28.1605 23.2821ZM24.9599 16.0807L32.9615 8.07917L24.9599 0.0776043V4.87854H18.5586V11.2798H24.9599V16.0807Z" fill="black" fill-opacity="0.7"/>
</svg>
