<svg width="38" height="39" viewBox="0 0 38 39" fill="none" xmlns="http://www.w3.org/2000/svg">
<g filter="url(#filter0_d)">
<path d="M1.37394 18.2004C1.37394 25.36 5.67931 31.5106 11.8401 34.2149C11.7909 32.9939 11.8314 31.5283 12.1445 30.1999C12.4806 28.7805 14.3943 20.6725 14.3943 20.6725C14.3943 20.6725 13.8357 19.5561 13.8357 17.9061C13.8357 15.315 15.3375 13.3799 17.2078 13.3799C18.7983 13.3799 19.5666 14.5744 19.5666 16.0048C19.5666 17.6036 18.5469 19.995 18.0225 22.2099C17.5844 24.0646 18.9525 25.5774 20.7822 25.5774C24.0951 25.5774 26.3263 21.3226 26.3263 16.2813C26.3263 12.4492 23.7452 9.58096 19.0507 9.58096C13.7468 9.58096 10.4426 13.5363 10.4426 17.9544C10.4426 19.4777 10.8917 20.5519 11.5952 21.3838C11.9187 21.7658 11.9636 21.9195 11.8465 22.3582C11.7627 22.6799 11.5701 23.4544 11.4903 23.7614C11.3739 24.2042 11.015 24.3625 10.6148 24.199C8.17185 23.2017 7.03411 20.5265 7.03411 17.5192C7.03411 12.5524 11.2231 6.59673 19.5306 6.59673C26.2062 6.59673 30.6 11.4273 30.6 16.6127C30.6 23.4716 26.7866 28.5958 21.1655 28.5958C19.2779 28.5958 17.5022 27.5754 16.8939 26.4164C16.8939 26.4164 15.8788 30.4449 15.6638 31.2228C15.2931 32.5709 14.5675 33.9183 13.904 34.9685C15.5128 35.4441 17.1818 35.6856 18.8595 35.6855C28.5149 35.6855 36.3437 27.8572 36.3437 18.2004C36.3437 8.54392 28.5149 0.715683 18.8595 0.715683C9.20305 0.715683 1.37394 8.54392 1.37394 18.2004Z" fill="#CB1F27"/>
</g>
<defs>
<filter id="filter0_d" x="0.188525" y="0.715683" width="37.3406" height="37.3406" filterUnits="userSpaceOnUse" color-interpolation-filters="sRGB">
<feFlood flood-opacity="0" result="BackgroundImageFix"/>
<feColorMatrix in="SourceAlpha" type="matrix" values="0 0 0 0 0 0 0 0 0 0 0 0 0 0 0 0 0 0 127 0"/>
<feOffset dy="1.18542"/>
<feGaussianBlur stdDeviation="0.592708"/>
<feColorMatrix type="matrix" values="0 0 0 0 0 0 0 0 0 0 0 0 0 0 0 0 0 0 0.25 0"/>
<feBlend mode="normal" in2="BackgroundImageFix" result="effect1_dropShadow"/>
<feBlend mode="normal" in="SourceGraphic" in2="effect1_dropShadow" result="shape"/>
</filter>
</defs>
</svg>
